<svg width="262" height="271" viewBox="0 0 262 271" fill="none" xmlns="http://www.w3.org/2000/svg">
  <rect x="3.894" y="43" width="117.463" height="117.463" rx="58.731" fill="#CDE1FD"/>
  <g clip-path="url(#a)">
    <path d="m94.832 71.67 6.853-6.054h-6.99l.137 6.054Z" fill="#002DE3"/>
    <path d="M131.53 66.302H97.427a9.449 9.449 0 0 1-9.449-9.449V52.45A9.449 9.449 0 0 1 97.427 43h34.103a9.448 9.448 0 0 1 9.448 9.449v4.404a9.448 9.448 0 0 1-9.448 9.449Z" fill="#002DE3"/>
    <path d="M107.396 56.707a2.056 2.056 0 1 1 0-4.113 2.056 2.056 0 0 1 0 4.113Zm7.082 0a2.056 2.056 0 1 1 0-4.113 2.056 2.056 0 0 1 0 4.113Zm7.082 0a2.056 2.056 0 1 1 0-4.113 2.056 2.056 0 0 1 0 4.113Z" fill="#fff"/>
  </g>
  <path d="m127.264 142.517-9.094-3.195-6.961 19.812 9.093 3.195 6.962-19.812Zm5.714 95.695c.392.617 2.479 4.329 3.635 4.709 2.094.681 12.933-3.228 13.225-3.744.292-.517.126-1.371-.485-1.445-.612-.073-5.45.659-6.234.554-.784-.106-2.598-1.372-2.811-2.286M.978 181.244c0 24.939 11.194 30.176 22.33 30.176 28.206 0 64.903-16.035 66.975-16.653-.651 2.623-4.763 69.118-4.763 69.501.978.541 8.47 1.007 10.992.541.652-1.617 20.466-80.706 20.466-82.789 0-2.083-1.707-5.251-8.164-5.708-2.73-.194-40.71-1.312-40.71-1.312" fill="#1F161E"/>
  <path d="M95.866 164c8.498 8.746 46.447 69.799 46.11 71.226-.337 1.427-9.062 4.452-10.906 3.637-7.826-3.429-55.871-61.053-57.742-61.923-1.87-.87-4.673-.534-6.343-.295-4.343-5.132 5.379-11.227 28.88-12.645Z" fill="#0F1828"/>
  <path d="M57.502 94.266c12.778 0 16.452 12.099 17.509 16.667 3.38 14.585-6.03 70.007-7.12 71.534-9.247 12.928-62.105 14.076-67.26 8.477-5.156-5.599 21.959-96.678 56.871-96.678Z" fill="#375FFF"/>
  <path d="M86.975 264c-.171.63-1.463 4.318-.817 5.039 1.16 1.304 13.234 2.203 13.893 1.903.659-.3 1.207-1.034.771-1.303-.435-.27-5.01-1.477-5.571-1.851-.56-.373-1.029-2.033-.455-2.832" fill="#1F161E"/>
  <path d="M55.59 96.817c-.346 1.11 8.673 3.916 9.019 2.813l3.498-11.224-9.012-2.813-3.505 11.224Z" fill="#F8CDBA"/>
  <path d="M64.53 91.062c-.88-.274-7.282.463-7.713 1.847l2.278-7.316c1.403.438 5.436 5.469 5.436 5.469Z" fill="#1F161E"/>
  <path d="M69.562 92.863c7.313 0 13.24-5.928 13.24-13.24 0-7.313-5.928-13.241-13.24-13.241-7.313 0-13.24 5.928-13.24 13.24 0 7.313 5.927 13.24 13.24 13.24Z" fill="#F8CDBA"/>
  <path d="M82.769 86.597c.198-.636-.634-1.462-1.858-1.844-1.225-.382-2.38-.176-2.578.46-.198.637.633 1.463 1.858 1.845 1.225.382 2.379.176 2.578-.46Zm-13.922-4.341c.198-.636-.634-1.462-1.859-1.844-1.224-.383-2.378-.176-2.577.46-.198.637.633 1.462 1.858 1.845 1.225.382 2.379.176 2.578-.46Z" fill="#FA9E9F"/>
  <path d="M75.898 81.835c.229.717 1.586 3.863-.965 4.17m-5.378 1.5c-.652-.228-1.435-1.35-1.742-2.27" stroke="#0F1828" stroke-width="1.2" stroke-miterlimit="10" stroke-linecap="round"/>
  <path d="M73.569 62.25c-3.492-.436-13.626-3.451-15.93-5.546-1.09.574-5.325 4.379-8.777 9.527l4.901 4.927L47.57 68.3a25.33 25.33 0 0 0-3.308 8.712c1.599 4.314 6.617 6.088 7.563 6.206 6.101.77 8.444-8.712 11.518-9.886 5.22-2.004 11.368 3.197 19.1 2.87 1.717-3.504-.515-12.9-8.874-13.951Z" fill="#1F161E"/>
  <path d="M57.424 80.49a3.06 3.06 0 1 0 0-6.121 3.06 3.06 0 0 0 0 6.121Z" fill="#F8CDBA"/>
  <path d="M44.262 125.302c-.653 4.085-2.767 42.659 2.297 46.411 10.846 8.033 60.93-1.794 68.52-4.607.822-2.689 0-11.231 0-11.231-2.924-.117-39.807-.47-42.006-3.263-2.2-2.793-2.46-25.626-2.108-28.204" fill="#375FFF"/>
  <path d="M120.182 168a7.093 7.093 0 1 0 0-14.187 7.093 7.093 0 0 0 0 14.187Z" fill="#F8CDBA"/>
  <path d="M73.066 152.632c-2.225-2.813-2.46-25.627-2.108-28.204m-1.357 50.183c-10.22.567-19.153 0-23.042-2.898-2.219-1.638-3.06-9.945-3.263-19.114" stroke="#0F1828" stroke-linecap="round" stroke-linejoin="round"/>
  <g clip-path="url(#b)">
    <rect x="162" width="100" height="100" rx="50" fill="#CDE1FD"/>
    <g clip-path="url(#c)">
      <path d="M176.094 56.68c-1.121-.786-5.876-6.567-6.437-8.51-.561-1.943-.982-9.266 4.564-7.602 5.546 1.665 3.042 7.533 6.954 11.231" fill="#F8CDBA"/>
      <path d="m174.238 35.329-5.017 4.005 8.726 10.93 5.017-4.004-8.726-10.931ZM244.802 51.8c1.364 1.269 15.321 24.774 15.321 27.716 0 2.943-3.221 20.789-5.073 24.597-1.851 3.807-10.248-52.314-10.248-52.314Z" fill="#1F161E"/>
      <path d="M236.591 45.258c20.089 0 22.715 70.794 21.298 73.641-1.417 2.847-36.545 2.517-39.392 0-2.847-2.517-.382-73.64 18.094-73.64Z" fill="#002DE3"/>
      <path d="M232.979 47.623c0 1.26 6.955 1.356 6.955 0v-8.45h-6.955v8.45Z" fill="#F8CDBA"/>
      <path d="M239.942 44.21c0-.751-1.738-3.346-3.042-2.907 1.638-.578 2.447-2.551 3.042-2.147v5.055Z" fill="#0F1828"/>
      <path d="M233.371 42.016a9.044 9.044 0 0 0 9.044-9.045 9.045 9.045 0 1 0-18.089 0 9.045 9.045 0 0 0 9.045 9.045Z" fill="#F8CDBA"/>
      <path d="M224.226 34.97c.833 0 1.508-.352 1.508-.786 0-.435-.675-.787-1.508-.787s-1.508.352-1.508.787c0 .434.675.786 1.508.786Zm9.484 0c.833 0 1.508-.352 1.508-.786 0-.435-.675-.787-1.508-.787s-1.509.352-1.509.787c0 .434.676.786 1.509.786Z" fill="#FA9E9F"/>
      <path d="M227.898 32.554c-.278.404-1.738 2.094-.199 2.777m3.051 1.973c.434 0 1.152-.56 1.521-1.069" stroke="#0F1828" stroke-width=".69" stroke-miterlimit="10" stroke-linecap="round"/>
      <path d="M242.016 27.699c0-3.138-4.377-5.477-7.424-5.477-4.851 0-10.762 1.182-11.735 1.526-1.635.57-1.913 2.312-1.913 2.894 0 2.443.87 3.964 3.582 4.347a8.41 8.41 0 0 1 .947-2.451 3.41 3.41 0 0 1 2.339-.04c.686.24 6.424 2.943 10.67 2.943.565.795 1.808 5.65 1.443 7.71 1.243.074 3.534-3.972 3.651-6.085a4.657 4.657 0 0 0-1.739-3.798c.057-.457.179-1.322.179-1.57Z" fill="#0F1828"/>
      <path d="M238.882 35.392a1.99 1.99 0 1 0 0-3.981 1.99 1.99 0 0 0 0 3.98Z" fill="#F8CDBA"/>
      <path d="M241.872 64.382c-4.981 7.61-31.911 19.615-34.745 19.615-7.515 0-29.764-24.691-31.033-27.325 1.465-1.565 4.585-4.881 5.072-4.881.487 0 21.667 14.638 25.67 14.638s22.975-13.347 25.444-13.947" fill="#002DE3"/>
      <path d="M225.569 56.302c3.281-2.038 5.894-3.625 6.711-3.82M219.932 78.92c8.692-4.176 19.041-10.096 21.94-14.53" stroke="#0F1828" stroke-linecap="round" stroke-linejoin="round"/>
      <path d="M218.528 89.691c.178-1.7 8.984-14.621 10.683-15.62-1.804 1.003-8.632 4.467-9.279 4.85-.379 1.013-1.404 10.77-1.404 10.77Z" fill="#1F161E"/>
    </g>
  </g>
  <g clip-path="url(#d)">
    <path d="m192.922 26.425-6.077-5.369h6.199l-.122 5.369Z" fill="#375FFF"/>
    <path d="M160.379 21.664h30.242a8.379 8.379 0 0 0 8.379-8.38V9.38A8.379 8.379 0 0 0 190.621 1h-30.242A8.379 8.379 0 0 0 152 9.379v3.906a8.379 8.379 0 0 0 8.379 8.379Z" fill="#375FFF"/>
    <path d="M181.78 13.155a1.823 1.823 0 1 0 0-3.646 1.823 1.823 0 0 0 0 3.646Zm-6.28 0a1.823 1.823 0 1 0 0-3.646 1.823 1.823 0 0 0 0 3.646Zm-6.28 0a1.823 1.823 0 1 0 0-3.646 1.823 1.823 0 0 0 0 3.646Z" fill="#fff"/>
  </g>
  <defs>
    <clipPath id="a">
      <path fill="#fff" d="M140.978 43h-53v28.67h53z"/>
    </clipPath>
    <clipPath id="b">
      <rect x="162" width="100" height="100" rx="50" fill="#fff"/>
    </clipPath>
    <clipPath id="c">
      <path fill="#fff" d="M169.222 22.222h111.111v219.523H169.222z"/>
    </clipPath>
    <clipPath id="d">
      <path fill="#fff" d="M152 1h47v25.425h-47z"/>
    </clipPath>
  </defs>
</svg>
